<svg xmlns="http://www.w3.org/2000/svg" xmlns:xlink="http://www.w3.org/1999/xlink" width="500" zoomAndPan="magnify" viewBox="0 0 375 374.999991" height="500" preserveAspectRatio="xMidYMid meet" version="1.0"><defs><g/></defs><rect x="-37.5" width="450" fill="rgb(100%, 100%, 100%)" y="-37.499999" height="449.999989" fill-opacity="1"/><rect x="-37.5" width="450" fill="rgb(100%, 74.119568%, 34.899902%)" y="-37.499999" height="449.999989" fill-opacity="1"/><rect x="-37.5" width="450" fill="rgb(100%, 100%, 100%)" y="-37.499999" height="449.999989" fill-opacity="1"/><rect x="-37.5" width="450" fill="rgb(100%, 74.119568%, 34.899902%)" y="-37.499999" height="449.999989" fill-opacity="1"/><g fill="rgb(99.21875%, 38.819885%, 0.389099%)" fill-opacity="1"><g transform="translate(71.554687, 64.706328)"><g><path d="M 14.796875 -21.265625 L 16.078125 -2.640625 C 16.140625 -1.722656 15.753906 -1.210938 14.921875 -1.109375 L 9.609375 -0.625 C 9.046875 -0.570312 8.609375 -0.675781 8.296875 -0.9375 C 7.984375 -1.195312 7.84375 -1.597656 7.875 -2.140625 L 8.328125 -20.8125 L 1.953125 -20.109375 C 1.328125 -20.078125 0.875 -20.175781 0.59375 -20.40625 C 0.3125 -20.644531 0.140625 -21.046875 0.078125 -21.609375 L -0.265625 -26.125 C -0.347656 -27.101562 0.117188 -27.59375 1.140625 -27.59375 L 20.109375 -27.90625 C 20.640625 -27.90625 21 -27.800781 21.1875 -27.59375 C 21.382812 -27.382812 21.492188 -27.015625 21.515625 -26.484375 L 21.703125 -22.546875 C 21.722656 -22.179688 21.644531 -21.925781 21.46875 -21.78125 C 21.300781 -21.644531 21.019531 -21.5625 20.625 -21.53125 Z M 14.796875 -21.265625 "/></g></g></g><g fill="rgb(99.21875%, 38.819885%, 0.389099%)" fill-opacity="1"><g transform="translate(93.168981, 64.706328)"><g><path d="M 7.171875 -12.390625 L 7.75 -1.0625 C 7.75 -0.414062 7.347656 -0.078125 6.546875 -0.046875 L 3.609375 0.125 C 2.835938 0.15625 2.398438 -0.164062 2.296875 -0.84375 L 0.390625 -19.65625 C 0.296875 -20.363281 0.5625 -20.71875 1.1875 -20.71875 L 6.546875 -20.8125 C 7.253906 -20.8125 7.582031 -20.46875 7.53125 -19.78125 L 7.4375 -18.546875 L 9.359375 -18.984375 C 11.078125 -19.273438 12.191406 -19.425781 12.703125 -19.4375 C 14.210938 -19.4375 15.28125 -19.070312 15.90625 -18.34375 C 16.53125 -17.625 16.8125 -16.5 16.75 -14.96875 L 16.578125 -11.1875 C 16.546875 -10.53125 16.140625 -10.160156 15.359375 -10.078125 L 12.921875 -9.8125 C 11.734375 -9.695312 11.140625 -10.023438 11.140625 -10.796875 L 11.1875 -13.1875 C 11.1875 -13.664062 11.035156 -14.015625 10.734375 -14.234375 C 10.441406 -14.460938 10.039062 -14.535156 9.53125 -14.453125 L 8.59375 -14.25 C 7.625 -14.113281 7.148438 -13.492188 7.171875 -12.390625 Z M 7.171875 -12.390625 "/></g></g></g><g fill="rgb(99.21875%, 38.819885%, 0.389099%)" fill-opacity="1"><g transform="translate(110.05991, 64.706328)"><g><path d="M 5.9375 2.21875 L 5.9375 3.15625 C 5.9375 3.75 6.082031 4.203125 6.375 4.515625 C 6.675781 4.828125 7.234375 5 8.046875 5.03125 L 10.359375 5.140625 C 11.609375 5.171875 12.476562 4.851562 12.96875 4.1875 C 13.46875 3.53125 13.6875 2.546875 13.625 1.234375 L 13.5625 -0.265625 C 13.53125 -1.035156 13.101562 -1.457031 12.28125 -1.53125 L 7.046875 -1.703125 C 5.003906 -1.753906 3.550781 -2.210938 2.6875 -3.078125 C 1.820312 -3.941406 1.316406 -5.28125 1.171875 -7.09375 L 0.28125 -19.171875 C 0.164062 -20.367188 0.617188 -20.992188 1.640625 -21.046875 L 4.484375 -21.21875 C 5.640625 -21.3125 6.234375 -20.898438 6.265625 -19.984375 L 6.625 -9.578125 C 6.644531 -8.210938 6.867188 -7.253906 7.296875 -6.703125 C 7.734375 -6.148438 8.425781 -5.875 9.375 -5.875 L 11.96875 -5.828125 C 13.65625 -5.773438 14.46875 -6.582031 14.40625 -8.25 L 13.96875 -19.09375 C 13.945312 -19.738281 14.03125 -20.210938 14.21875 -20.515625 C 14.414062 -20.816406 14.804688 -20.976562 15.390625 -21 L 18.484375 -21.171875 C 19.304688 -21.234375 19.734375 -20.816406 19.765625 -19.921875 L 20.4375 0.265625 C 20.550781 3.773438 19.941406 6.265625 18.609375 7.734375 C 17.273438 9.210938 14.804688 9.90625 11.203125 9.8125 L 5.25 9.578125 C 3.175781 9.515625 1.71875 9.007812 0.875 8.0625 C 0.03125 7.113281 -0.351562 5.703125 -0.28125 3.828125 L -0.234375 2.21875 C -0.234375 1.394531 0.148438 1.007812 0.921875 1.0625 L 5 1.203125 C 5.625 1.222656 5.9375 1.5625 5.9375 2.21875 Z M 5.9375 2.21875 "/></g></g></g><g fill="rgb(99.21875%, 38.819885%, 0.389099%)" fill-opacity="1"><g transform="translate(130.868838, 64.706328)"><g><path d="M 21.53125 -12.03125 L 21.265625 -6 C 21.066406 -1.925781 19.164062 0.203125 15.5625 0.390625 L 8.8125 0.71875 C 6.019531 0.832031 4.070312 0.398438 2.96875 -0.578125 C 1.875 -1.554688 1.300781 -3.234375 1.25 -5.609375 L 0.546875 -26.75 C 0.515625 -27.519531 0.84375 -27.90625 1.53125 -27.90625 L 6.15625 -28.03125 C 6.695312 -28.0625 7.078125 -27.96875 7.296875 -27.75 C 7.515625 -27.53125 7.59375 -27.171875 7.53125 -26.671875 L 6.765625 -20.375 C 6.710938 -19.75 7.015625 -19.4375 7.671875 -19.4375 L 13.40625 -19.53125 C 16.207031 -19.550781 18.289062 -18.929688 19.65625 -17.671875 C 21.019531 -16.410156 21.644531 -14.53125 21.53125 -12.03125 Z M 14.984375 -7.359375 L 15.109375 -11.640625 C 15.140625 -12.890625 14.90625 -13.765625 14.40625 -14.265625 C 13.90625 -14.765625 13.046875 -15 11.828125 -14.96875 L 8.25 -14.890625 C 7.457031 -14.859375 7.070312 -14.335938 7.09375 -13.328125 L 7.359375 -7.015625 C 7.421875 -5.316406 8.488281 -4.523438 10.5625 -4.640625 L 12.671875 -4.71875 C 13.472656 -4.75 14.050781 -4.9375 14.40625 -5.28125 C 14.757812 -5.625 14.953125 -6.316406 14.984375 -7.359375 Z M 14.984375 -7.359375 "/></g></g></g><g fill="rgb(99.21875%, 38.819885%, 0.389099%)" fill-opacity="1"><g transform="translate(153.288499, 64.706328)"><g><path d="M 14.84375 0.765625 L 9.4375 0.8125 C 6.945312 0.832031 5.15625 0.40625 4.0625 -0.46875 C 2.976562 -1.34375 2.363281 -2.757812 2.21875 -4.71875 L 1.328125 -14.046875 C 1.085938 -16.617188 1.457031 -18.445312 2.4375 -19.53125 C 3.414062 -20.625 5.125 -21.1875 7.5625 -21.21875 L 13.3125 -21.3125 C 16.882812 -21.34375 18.757812 -19.78125 18.9375 -16.625 L 19.015625 -14.671875 C 19.128906 -12.796875 18.773438 -11.460938 17.953125 -10.671875 C 17.128906 -9.878906 15.925781 -9.457031 14.34375 -9.40625 L 9.265625 -9.1875 C 8.585938 -9.15625 8.273438 -8.8125 8.328125 -8.15625 L 8.5 -6.109375 C 8.5625 -5.253906 8.832031 -4.675781 9.3125 -4.375 C 9.800781 -4.070312 10.484375 -3.9375 11.359375 -3.96875 L 13.265625 -4 C 13.835938 -4.03125 14.226562 -4.144531 14.4375 -4.34375 C 14.644531 -4.539062 14.78125 -4.890625 14.84375 -5.390625 L 14.890625 -6.421875 C 14.941406 -7.242188 15.425781 -7.65625 16.34375 -7.65625 L 19.0625 -7.703125 C 19.914062 -7.703125 20.335938 -7.234375 20.328125 -6.296875 L 20.265625 -4.5 C 20.191406 -1.050781 18.382812 0.703125 14.84375 0.765625 Z M 11.265625 -17.15625 L 8.328125 -17.0625 C 7.554688 -17.03125 7.007812 -16.859375 6.6875 -16.546875 C 6.375 -16.234375 6.234375 -15.722656 6.265625 -15.015625 L 6.34375 -13.828125 C 6.4375 -13.054688 6.960938 -12.6875 7.921875 -12.71875 L 11.703125 -12.796875 C 12.953125 -12.828125 13.535156 -13.4375 13.453125 -14.625 L 13.40625 -15.5625 C 13.34375 -16.65625 12.628906 -17.1875 11.265625 -17.15625 Z M 11.265625 -17.15625 "/></g></g></g><g fill="rgb(99.21875%, 38.819885%, 0.389099%)" fill-opacity="1"><g transform="translate(173.509727, 64.706328)"><g/></g></g><g fill="rgb(99.21875%, 38.819885%, 0.389099%)" fill-opacity="1"><g transform="translate(186.874457, 64.706328)"><g><path d="M 29.15625 -1.65625 L 24.5625 -1.53125 C 23.539062 -1.5 22.796875 -1.660156 22.328125 -2.015625 C 21.859375 -2.367188 21.503906 -3.003906 21.265625 -3.921875 L 19.359375 -12.625 L 17.203125 -3.0625 C 16.691406 -1.28125 15.640625 -0.441406 14.046875 -0.546875 L 7.890625 -0.8125 C 6.242188 -0.863281 5.25 -1.78125 4.90625 -3.5625 L 0.09375 -26.625 C 0.0625 -26.851562 0.132812 -27.066406 0.3125 -27.265625 C 0.5 -27.460938 0.722656 -27.570312 0.984375 -27.59375 L 8.171875 -28.5 C 8.367188 -28.519531 8.550781 -28.414062 8.71875 -28.1875 C 8.882812 -27.96875 8.984375 -27.742188 9.015625 -27.515625 L 10.6875 -8.296875 C 10.75 -7.609375 11.128906 -7.25 11.828125 -7.21875 L 12.84375 -7.140625 C 13.5 -7.078125 13.925781 -7.460938 14.125 -8.296875 L 17.203125 -21.75 C 17.347656 -22.394531 17.753906 -22.753906 18.421875 -22.828125 L 21.4375 -23.09375 C 22.238281 -23.15625 22.707031 -22.859375 22.84375 -22.203125 L 25.484375 -9.765625 C 25.609375 -9.117188 26.003906 -8.820312 26.671875 -8.875 L 27.1875 -8.921875 C 27.664062 -8.984375 27.960938 -9.328125 28.078125 -9.953125 L 29.875 -26.296875 C 30.039062 -27.421875 30.800781 -27.941406 32.15625 -27.859375 L 36.15625 -27.640625 C 37.257812 -27.585938 37.675781 -27.035156 37.40625 -25.984375 L 32.765625 -4.8125 C 32.429688 -3.53125 32.003906 -2.691406 31.484375 -2.296875 C 30.972656 -1.898438 30.195312 -1.6875 29.15625 -1.65625 Z M 29.15625 -1.65625 "/></g></g></g><g fill="rgb(99.21875%, 38.819885%, 0.389099%)" fill-opacity="1"><g transform="translate(224.313114, 64.706328)"><g><path d="M 5.703125 -21.78125 L 14.3125 -21.890625 C 18.382812 -21.953125 20.492188 -20.097656 20.640625 -16.328125 L 21.3125 -6.109375 C 21.40625 -3.648438 21.03125 -1.910156 20.1875 -0.890625 C 19.351562 0.117188 17.71875 0.582031 15.28125 0.5 L 7.28125 0.21875 C 4.101562 0.101562 2.445312 -1.457031 2.3125 -4.46875 L 2.234375 -6.59375 C 2.171875 -8.351562 2.535156 -9.625 3.328125 -10.40625 C 4.117188 -11.1875 5.507812 -11.613281 7.5 -11.6875 L 13.15625 -11.90625 C 13.601562 -11.90625 13.796875 -12.128906 13.734375 -12.578125 L 13.609375 -15.0625 C 13.578125 -15.863281 13.382812 -16.410156 13.03125 -16.703125 C 12.6875 -17.003906 12.132812 -17.140625 11.375 -17.109375 L 7.359375 -17.015625 C 6.285156 -16.960938 5.765625 -16.445312 5.796875 -15.46875 L 5.84375 -14.546875 C 5.875 -13.972656 5.601562 -13.660156 5.03125 -13.609375 L 1.796875 -13.359375 C 0.929688 -13.304688 0.476562 -13.710938 0.4375 -14.578125 L 0.359375 -17.296875 C 0.296875 -18.785156 0.664062 -19.898438 1.46875 -20.640625 C 2.28125 -21.378906 3.691406 -21.757812 5.703125 -21.78125 Z M 11.1875 -3.5625 L 13.921875 -3.53125 C 14.660156 -3.5 15.171875 -3.609375 15.453125 -3.859375 C 15.734375 -4.117188 15.84375 -4.507812 15.78125 -5.03125 L 15.703125 -6.640625 C 15.585938 -7.679688 14.960938 -8.203125 13.828125 -8.203125 L 10.734375 -8.15625 C 10.085938 -8.15625 9.628906 -8.003906 9.359375 -7.703125 C 9.097656 -7.410156 9 -6.910156 9.0625 -6.203125 L 9.15625 -5.21875 C 9.207031 -4.625 9.375 -4.207031 9.65625 -3.96875 C 9.9375 -3.726562 10.445312 -3.59375 11.1875 -3.5625 Z M 11.1875 -3.5625 "/></g></g></g><g fill="rgb(99.21875%, 38.819885%, 0.389099%)" fill-opacity="1"><g transform="translate(246.232142, 64.706328)"><g><path d="M 7.40625 -26.375 L 8.03125 -1.484375 C 8.0625 -0.648438 7.628906 -0.195312 6.734375 -0.125 L 3.65625 -0.046875 C 2.769531 0.015625 2.304688 -0.351562 2.265625 -1.15625 L 0.359375 -26.03125 C 0.296875 -26.71875 0.664062 -27.085938 1.46875 -27.140625 L 6.46875 -27.3125 C 6.832031 -27.34375 7.078125 -27.273438 7.203125 -27.109375 C 7.335938 -26.953125 7.40625 -26.707031 7.40625 -26.375 Z M 7.40625 -26.375 "/></g></g></g><g fill="rgb(99.21875%, 38.819885%, 0.389099%)" fill-opacity="1"><g transform="translate(254.655839, 64.706328)"><g><path d="M 7.40625 -26.375 L 8.03125 -1.484375 C 8.0625 -0.648438 7.628906 -0.195312 6.734375 -0.125 L 3.65625 -0.046875 C 2.769531 0.015625 2.304688 -0.351562 2.265625 -1.15625 L 0.359375 -26.03125 C 0.296875 -26.71875 0.664062 -27.085938 1.46875 -27.140625 L 6.46875 -27.3125 C 6.832031 -27.34375 7.078125 -27.273438 7.203125 -27.109375 C 7.335938 -26.953125 7.40625 -26.707031 7.40625 -26.375 Z M 7.40625 -26.375 "/></g></g></g><g fill="rgb(99.21875%, 38.819885%, 0.389099%)" fill-opacity="1"><g transform="translate(263.079537, 64.706328)"><g><path d="M 14.84375 0.765625 L 9.4375 0.8125 C 6.945312 0.832031 5.15625 0.40625 4.0625 -0.46875 C 2.976562 -1.34375 2.363281 -2.757812 2.21875 -4.71875 L 1.328125 -14.046875 C 1.085938 -16.617188 1.457031 -18.445312 2.4375 -19.53125 C 3.414062 -20.625 5.125 -21.1875 7.5625 -21.21875 L 13.3125 -21.3125 C 16.882812 -21.34375 18.757812 -19.78125 18.9375 -16.625 L 19.015625 -14.671875 C 19.128906 -12.796875 18.773438 -11.460938 17.953125 -10.671875 C 17.128906 -9.878906 15.925781 -9.457031 14.34375 -9.40625 L 9.265625 -9.1875 C 8.585938 -9.15625 8.273438 -8.8125 8.328125 -8.15625 L 8.5 -6.109375 C 8.5625 -5.253906 8.832031 -4.675781 9.3125 -4.375 C 9.800781 -4.070312 10.484375 -3.9375 11.359375 -3.96875 L 13.265625 -4 C 13.835938 -4.03125 14.226562 -4.144531 14.4375 -4.34375 C 14.644531 -4.539062 14.78125 -4.890625 14.84375 -5.390625 L 14.890625 -6.421875 C 14.941406 -7.242188 15.425781 -7.65625 16.34375 -7.65625 L 19.0625 -7.703125 C 19.914062 -7.703125 20.335938 -7.234375 20.328125 -6.296875 L 20.265625 -4.5 C 20.191406 -1.050781 18.382812 0.703125 14.84375 0.765625 Z M 11.265625 -17.15625 L 8.328125 -17.0625 C 7.554688 -17.03125 7.007812 -16.859375 6.6875 -16.546875 C 6.375 -16.234375 6.234375 -15.722656 6.265625 -15.015625 L 6.34375 -13.828125 C 6.4375 -13.054688 6.960938 -12.6875 7.921875 -12.71875 L 11.703125 -12.796875 C 12.953125 -12.828125 13.535156 -13.4375 13.453125 -14.625 L 13.40625 -15.5625 C 13.34375 -16.65625 12.628906 -17.1875 11.265625 -17.15625 Z M 11.265625 -17.15625 "/></g></g></g><g fill="rgb(99.21875%, 38.819885%, 0.389099%)" fill-opacity="1"><g transform="translate(283.300765, 64.706328)"><g><path d="M 12.265625 1.0625 C 9.347656 1.0625 7.25 0.414062 5.96875 -0.875 C 4.6875 -2.164062 4.09375 -4.269531 4.1875 -7.1875 L 4.375 -13.5625 L 1.609375 -13.359375 C 0.628906 -13.335938 0.109375 -13.742188 0.046875 -14.578125 L -0.125 -17.265625 C -0.15625 -17.742188 -0.078125 -18.097656 0.109375 -18.328125 C 0.296875 -18.554688 0.628906 -18.65625 1.109375 -18.625 L 4.25 -18.546875 L 3.828125 -24.375 C 3.742188 -25.363281 4.144531 -25.875 5.03125 -25.90625 L 10.21875 -26.15625 C 10.632812 -26.1875 10.925781 -26.097656 11.09375 -25.890625 C 11.269531 -25.691406 11.347656 -25.351562 11.328125 -24.875 L 10.609375 -18.671875 L 17.390625 -19.140625 C 17.867188 -19.160156 18.234375 -19.046875 18.484375 -18.796875 C 18.734375 -18.546875 18.84375 -18.191406 18.8125 -17.734375 L 18.546875 -14.453125 C 18.515625 -13.742188 18.101562 -13.410156 17.3125 -13.453125 L 10.390625 -13.6875 L 10.296875 -6.8125 C 10.265625 -5.59375 10.46875 -4.769531 10.90625 -4.34375 C 11.351562 -3.914062 12.03125 -3.71875 12.9375 -3.75 L 13.1875 -3.75 C 14.144531 -3.769531 14.679688 -4.25 14.796875 -5.1875 L 14.890625 -6.71875 C 14.953125 -7.226562 15.234375 -7.484375 15.734375 -7.484375 L 19.140625 -7.578125 C 19.703125 -7.578125 19.960938 -7.289062 19.921875 -6.71875 L 19.796875 -3.78125 C 19.734375 -2.332031 19.234375 -1.171875 18.296875 -0.296875 C 17.359375 0.578125 16.015625 1.03125 14.265625 1.0625 Z M 12.265625 1.0625 "/></g></g></g><g fill="rgb(99.21875%, 38.819885%, 0.389099%)" fill-opacity="1"><g transform="translate(187.490851, 118.037819)"><g/></g></g><g fill="rgb(85.488892%, 12.548828%, 98.429871%)" fill-opacity="1"><g transform="translate(75.741499, 64.707828)"><g><path d="M 13.5625 -1.375 L 15.703125 -2.640625 L 15.875 -2.265625 L 13.78125 -1.0625 Z M 10.4375 -1.109375 L 15.609375 -4.046875 L 15.78125 -3.75 L 10.609375 -0.765625 Z M 8.078125 -1.28125 L 11.90625 -3.484375 L 12.046875 -3.109375 L 8.296875 -0.9375 Z M 12.515625 -3.875 L 15.484375 -5.578125 L 15.75 -5.21875 L 12.796875 -3.53125 Z M 7.625 -2.546875 L 11.734375 -4.90625 L 12 -4.546875 L 7.84375 -2.171875 Z M 12.515625 -5.359375 L 15.4375 -7.015625 L 15.609375 -6.6875 L 12.71875 -4.984375 Z M 7.671875 -4.046875 L 11.734375 -6.421875 L 11.90625 -6.078125 L 7.84375 -3.75 Z M 12.4375 -6.8125 L 15.28125 -8.46875 L 15.484375 -8.125 L 12.671875 -6.515625 Z M 7.671875 -5.625 L 11.6875 -7.875 L 11.859375 -7.53125 L 7.875 -5.265625 Z M 12.390625 -8.34375 L 15.203125 -9.953125 L 15.390625 -9.578125 L 12.625 -7.984375 Z M 7.703125 -7.140625 L 11.578125 -9.359375 L 11.859375 -9.0625 L 7.984375 -6.765625 Z M 12.34375 -9.8125 L 15.0625 -11.40625 L 15.34375 -11.0625 L 12.625 -9.453125 Z M 7.75 -8.6875 L 11.578125 -10.890625 L 11.78125 -10.515625 L 7.953125 -8.34375 Z M 12.296875 -11.328125 L 14.984375 -12.84375 L 15.15625 -12.484375 L 12.515625 -10.96875 Z M 7.796875 -10.21875 L 11.546875 -12.34375 L 11.734375 -12.046875 L 7.984375 -9.859375 Z M 12.265625 -12.796875 L 14.84375 -14.34375 L 15.109375 -14 L 12.515625 -12.4375 Z M 7.796875 -11.78125 L 11.40625 -13.875 L 11.6875 -13.515625 L 8.078125 -11.40625 Z M 12.21875 -14.3125 L 14.765625 -15.78125 L 15.03125 -15.4375 L 12.484375 -13.953125 Z M 7.84375 -13.28125 L 11.40625 -15.34375 L 11.578125 -14.984375 L 8.078125 -12.9375 Z M 12.171875 -15.78125 L 14.671875 -17.265625 L 14.890625 -16.890625 L 12.4375 -15.4375 Z M 7.953125 -14.84375 L 11.359375 -16.859375 L 11.546875 -16.5 L 8.125 -14.546875 Z M 12.125 -17.3125 L 14.625 -18.6875 L 14.765625 -18.328125 L 12.296875 -16.9375 Z M 19.484375 -21.53125 L 21.234375 -22.5625 L 21.40625 -22.203125 L 19.703125 -21.1875 Z M 7.953125 -16.421875 L 11.328125 -18.328125 L 11.5 -17.96875 L 8.171875 -16.046875 Z M 12.046875 -18.765625 L 14.546875 -20.15625 L 14.671875 -19.84375 L 12.265625 -18.421875 Z M 16.671875 -21.40625 L 21.1875 -24 L 21.359375 -23.625 L 16.859375 -21.0625 Z M 7.984375 -17.921875 L 11.28125 -19.84375 L 11.453125 -19.484375 L 8.171875 -17.578125 Z M 12 -20.25 L 21.09375 -25.453125 L 21.28125 -25.15625 L 12.21875 -19.921875 Z M 8.03125 -19.484375 L 11.1875 -21.3125 L 11.453125 -20.96875 L 8.25 -19.140625 Z M 12 -21.75 L 15.78125 -23.953125 L 15.953125 -23.578125 L 12.171875 -21.40625 Z M 17.484375 -24.9375 L 21.015625 -26.9375 L 21.1875 -26.59375 L 17.65625 -24.5625 Z M 7.75 -20.8125 L 11.15625 -22.796875 L 11.40625 -22.46875 L 8.03125 -20.46875 Z M 11.953125 -23.234375 L 12.671875 -23.671875 L 12.9375 -23.3125 L 12.171875 -22.890625 Z M 14.34375 -24.671875 L 19.921875 -27.875 L 20.078125 -27.515625 L 14.59375 -24.296875 Z M 4.5 -20.46875 L 9.671875 -23.453125 L 9.859375 -23.109375 L 4.6875 -20.125 Z M 11.28125 -24.390625 L 17.21875 -27.828125 L 17.4375 -27.484375 L 11.5 -24.03125 Z M 1.328125 -20.15625 L 6.640625 -23.1875 L 6.765625 -22.84375 L 1.53125 -19.84375 Z M 8.171875 -24.125 L 14.546875 -27.78125 L 14.671875 -27.4375 L 8.34375 -23.78125 Z M 0.09375 -20.96875 L 3.53125 -22.921875 L 3.703125 -22.609375 L 0.265625 -20.59375 Z M 4.984375 -23.828125 L 11.828125 -27.734375 L 12 -27.375 L 5.21875 -23.453125 Z M -0.125 -22.390625 L 1.53125 -23.3125 L 1.78125 -22.96875 L 0.125 -22.03125 Z M 1.921875 -23.53125 L 9.109375 -27.703125 L 9.28125 -27.328125 L 2.140625 -23.1875 Z M -0.21875 -23.828125 L 6.375 -27.65625 L 6.640625 -27.28125 L 0 -23.453125 Z M -0.34375 -25.28125 L 3.703125 -27.609375 L 3.875 -27.234375 L -0.171875 -24.9375 Z M -0.34375 -26.796875 L 0.984375 -27.5625 L 1.15625 -27.203125 L -0.171875 -26.4375 Z M -0.34375 -26.796875 "/></g></g></g><g fill="rgb(85.488892%, 12.548828%, 98.429871%)" fill-opacity="1"><g transform="translate(97.361481, 64.707828)"><g><path d="M 6.734375 -0.5 L 7.359375 -0.84375 L 7.484375 -0.5 L 6.90625 -0.125 Z M 3.703125 -0.265625 L 7.40625 -2.421875 L 7.578125 -2.046875 L 3.921875 0.09375 Z M 2.171875 -0.9375 L 4.296875 -2.09375 L 4.46875 -1.734375 L 2.375 -0.59375 Z M 4.640625 -2.3125 L 7.3125 -3.875 L 7.53125 -3.53125 L 4.90625 -1.953125 Z M 1.953125 -2.3125 L 3.75 -3.359375 L 4 -3.03125 L 2.21875 -1.953125 Z M 4.59375 -3.78125 L 7.265625 -5.359375 L 7.40625 -4.984375 L 4.765625 -3.4375 Z M 1.875 -3.75 L 3.65625 -4.765625 L 3.828125 -4.421875 L 2.046875 -3.390625 Z M 4.46875 -5.265625 L 7.234375 -6.8125 L 7.40625 -6.46875 L 4.640625 -4.90625 Z M 12.765625 -10.03125 L 16.140625 -11.953125 L 16.328125 -11.65625 L 12.9375 -9.671875 Z M 1.734375 -5.21875 L 3.53125 -6.203125 L 3.703125 -5.828125 L 1.921875 -4.859375 Z M 4.296875 -6.6875 L 7.140625 -8.296875 L 7.3125 -7.953125 L 4.5 -6.34375 Z M 10.84375 -10.4375 L 13.328125 -11.859375 L 13.609375 -11.546875 L 11.109375 -10.078125 Z M 13.90625 -12.21875 L 16.140625 -13.5625 L 16.421875 -13.1875 L 14.171875 -11.859375 Z M 1.5625 -6.59375 L 3.390625 -7.625 L 3.578125 -7.3125 L 1.734375 -6.25 Z M 4.203125 -8.125 L 7.0625 -9.71875 L 7.234375 -9.40625 L 4.421875 -7.75 Z M 10.796875 -11.90625 L 13.234375 -13.328125 L 13.40625 -12.984375 L 10.96875 -11.578125 Z M 13.90625 -13.78125 L 16.21875 -15.109375 L 16.5 -14.765625 L 14.171875 -13.40625 Z M 1.4375 -8.03125 L 3.265625 -9.109375 L 3.4375 -8.734375 L 1.609375 -7.671875 Z M 4.09375 -9.578125 L 7.015625 -11.234375 L 7.1875 -10.890625 L 4.296875 -9.234375 Z M 10.84375 -13.453125 L 13.1875 -14.8125 L 13.375 -14.453125 L 11.015625 -13.109375 Z M 13.90625 -15.234375 L 16.171875 -16.546875 L 16.46875 -16.171875 L 14.125 -14.890625 Z M 1.234375 -9.5 L 3.0625 -10.515625 L 3.3125 -10.171875 L 1.53125 -9.140625 Z M 3.921875 -11.015625 L 6.859375 -12.71875 L 7.140625 -12.34375 L 4.203125 -10.640625 Z M 10 -14.5 L 12.71875 -16.046875 L 12.984375 -15.75 L 10.25 -14.125 Z M 13.453125 -16.5 L 15.875 -17.875 L 16 -17.53125 L 13.65625 -16.140625 Z M 1.0625 -10.890625 L 2.984375 -11.953125 L 3.15625 -11.65625 L 1.28125 -10.515625 Z M 3.828125 -12.4375 L 11.109375 -16.640625 L 11.359375 -16.28125 L 4.09375 -12.078125 Z M 12.21875 -17.3125 L 14.9375 -18.8125 L 15.109375 -18.46875 L 12.390625 -16.9375 Z M 1.015625 -12.296875 L 2.859375 -13.375 L 3.03125 -13.015625 L 1.15625 -11.953125 Z M 4.296875 -14.21875 L 7.703125 -16.171875 L 7.875 -15.875 L 4.46875 -13.875 Z M 9.453125 -17.21875 L 13.234375 -19.40625 L 13.40625 -19.03125 L 9.578125 -16.859375 Z M 0.890625 -13.78125 L 2.71875 -14.8125 L 2.890625 -14.453125 L 1.015625 -13.40625 Z M 3.53125 -15.28125 L 10.34375 -19.234375 L 10.515625 -18.859375 L 3.703125 -14.9375 Z M 0.71875 -15.203125 L 2.59375 -16.21875 L 2.765625 -15.921875 L 0.890625 -14.84375 Z M 3.390625 -16.71875 L 7.234375 -18.90625 L 7.40625 -18.546875 L 3.578125 -16.375 Z M 0.546875 -16.59375 L 2.453125 -17.703125 L 2.640625 -17.359375 L 0.765625 -16.21875 Z M 3.265625 -18.15625 L 7.140625 -20.375 L 7.40625 -20.078125 L 3.484375 -17.828125 Z M 0.390625 -18.046875 L 2.375 -19.1875 L 2.546875 -18.8125 L 0.625 -17.703125 Z M 2.71875 -19.40625 L 5.1875 -20.765625 L 5.3125 -20.421875 L 2.9375 -19.03125 Z M 0.21875 -19.484375 L 2.453125 -20.734375 L 2.640625 -20.375 L 0.4375 -19.140625 Z M 0.21875 -19.484375 "/></g></g></g><g fill="rgb(85.488892%, 12.548828%, 98.429871%)" fill-opacity="1"><g transform="translate(114.256851, 64.707828)"><g><path d="M 13.703125 9.109375 L 18.90625 6.078125 L 19.09375 6.421875 L 13.875 9.453125 Z M 10.84375 9.234375 L 19.625 4.140625 L 19.796875 4.5 L 11.0625 9.578125 Z M 8.390625 9.140625 L 11.453125 7.40625 L 11.65625 7.703125 L 8.59375 9.5 Z M 13.375 6.25 L 14.71875 5.4375 L 14.984375 5.796875 L 13.65625 6.59375 Z M 16.5 4.46875 L 19.875 2.546875 L 20.078125 2.890625 L 16.671875 4.8125 Z M 5.96875 9.0625 L 8.890625 7.359375 L 9.140625 7.671875 L 6.15625 9.40625 Z M 10.296875 6.546875 L 15.828125 3.359375 L 16 3.703125 L 10.4375 6.90625 Z M 16.8125 2.765625 L 19.921875 0.984375 L 20.125 1.28125 L 17.03125 3.109375 Z M 3.609375 8.890625 L 6.375 7.265625 L 6.546875 7.578125 L 3.828125 9.234375 Z M 7.75 6.46875 L 11.109375 4.546875 L 11.28125 4.90625 L 7.984375 6.8125 Z M 12.578125 3.65625 L 15.953125 1.734375 L 16.140625 2.09375 L 12.765625 4 Z M 16.890625 1.15625 L 19.921875 -0.546875 L 20.125 -0.171875 L 17.078125 1.53125 Z M 1.875 8.34375 L 4.25 7.015625 L 4.421875 7.359375 L 2.046875 8.6875 Z M 5.40625 6.34375 L 8.421875 4.59375 L 8.59375 4.9375 L 5.625 6.6875 Z M 13.1875 1.78125 L 15.921875 0.21875 L 16.171875 0.59375 L 13.453125 2.140625 Z M 16.859375 -0.3125 L 19.875 -2 L 20.078125 -1.65625 L 17.03125 0.046875 Z M 0.71875 7.484375 L 2.765625 6.296875 L 3.03125 6.640625 L 0.984375 7.84375 Z M 3.78125 5.75 L 6.421875 4.25 L 6.59375 4.59375 L 3.921875 6.125 Z M 13.234375 0.3125 L 15.921875 -1.203125 L 16.09375 -0.890625 L 13.40625 0.671875 Z M 16.8125 -1.78125 L 19.75 -3.484375 L 20.03125 -3.15625 L 17.03125 -1.4375 Z M 0 6.375 L 2 5.265625 L 2.171875 5.578125 L 0.21875 6.734375 Z M 2.8125 4.8125 L 5.703125 3.109375 L 5.96875 3.4375 L 3.0625 5.1875 Z M 13.0625 -1.109375 L 15.78125 -2.71875 L 16.046875 -2.375 L 13.328125 -0.8125 Z M 16.71875 -3.203125 L 19.75 -4.984375 L 19.921875 -4.640625 L 16.890625 -2.890625 Z M -0.34375 5.078125 L 1.703125 3.921875 L 1.828125 4.296875 L -0.125 5.40625 Z M 2.59375 3.390625 L 5.75 1.609375 L 5.921875 1.953125 L 2.765625 3.75 Z M 11.78125 -1.875 L 15.78125 -4.203125 L 15.953125 -3.828125 L 11.953125 -1.53125 Z M 16.671875 -4.71875 L 19.703125 -6.46875 L 19.875 -6.125 L 16.859375 -4.375 Z M -0.390625 3.609375 L 1.734375 2.421875 L 1.875 2.765625 L -0.21875 3.96875 Z M 2.5 1.953125 L 4.5 0.8125 L 4.765625 1.109375 L 2.71875 2.3125 Z M 9.28125 -1.953125 L 12.21875 -3.65625 L 12.4375 -3.3125 L 9.5 -1.609375 Z M 16.640625 -6.203125 L 19.65625 -7.953125 L 19.84375 -7.578125 L 16.8125 -5.828125 Z M -0.34375 2.09375 L 2.046875 0.71875 L 2.21875 1.0625 L -0.171875 2.453125 Z M 6.8125 -2.046875 L 9.71875 -3.703125 L 9.90625 -3.359375 L 7.015625 -1.703125 Z M 11.109375 -4.546875 L 15.390625 -7.0625 L 15.65625 -6.6875 L 11.359375 -4.203125 Z M 16.59375 -7.671875 L 19.625 -9.453125 L 19.796875 -9.109375 L 16.71875 -7.359375 Z M 4.640625 -2.3125 L 7.1875 -3.78125 L 7.453125 -3.4375 L 4.859375 -1.953125 Z M 8.640625 -4.640625 L 11.1875 -6.125 L 11.453125 -5.75 L 8.890625 -4.296875 Z M 13.953125 -7.671875 L 15.484375 -8.5625 L 15.65625 -8.203125 L 14.171875 -7.359375 Z M 16.546875 -9.1875 L 19.578125 -10.9375 L 19.75 -10.5625 L 16.71875 -8.84375 Z M 3.0625 -2.9375 L 5.3125 -4.25 L 5.578125 -3.875 L 3.359375 -2.59375 Z M 6.421875 -4.859375 L 8.640625 -6.15625 L 8.921875 -5.796875 L 6.640625 -4.5 Z M 13.953125 -9.234375 L 15.34375 -10.03125 L 15.609375 -9.671875 L 14.21875 -8.890625 Z M 16.421875 -10.609375 L 19.53125 -12.390625 L 19.703125 -12.046875 L 16.640625 -10.25 Z M 2.09375 -3.875 L 4.09375 -5.03125 L 4.296875 -4.6875 L 2.265625 -3.53125 Z M 4.90625 -5.484375 L 7.140625 -6.8125 L 7.40625 -6.46875 L 5.1875 -5.1875 Z M 13.90625 -10.71875 L 15.28125 -11.546875 L 15.5625 -11.1875 L 14.171875 -10.34375 Z M 16.375 -12.078125 L 19.484375 -13.875 L 19.65625 -13.5625 L 16.59375 -11.734375 Z M 1.484375 -5.03125 L 3.390625 -6.125 L 3.578125 -5.75 L 1.703125 -4.6875 Z M 4.140625 -6.59375 L 6.59375 -7.984375 L 6.765625 -7.625 L 4.375 -6.25 Z M 13.875 -12.171875 L 15.234375 -13.015625 L 15.53125 -12.671875 L 14.125 -11.828125 Z M 16.28125 -13.609375 L 19.40625 -15.390625 L 19.578125 -15.03125 L 16.5 -13.234375 Z M 1.203125 -6.375 L 3.03125 -7.453125 L 3.203125 -7.09375 L 1.375 -6.015625 Z M 3.828125 -7.875 L 6.34375 -9.40625 L 6.59375 -9.0625 L 4 -7.53125 Z M 13.828125 -13.703125 L 15.234375 -14.5 L 15.4375 -14.125 L 14 -13.328125 Z M 16.21875 -15.0625 L 19.359375 -16.859375 L 19.53125 -16.5 L 16.46875 -14.71875 Z M 0.984375 -7.75 L 2.859375 -8.890625 L 3.03125 -8.515625 L 1.203125 -7.453125 Z M 3.703125 -9.359375 L 6.34375 -10.890625 L 6.515625 -10.515625 L 3.875 -9.015625 Z M 13.78125 -15.15625 L 15.203125 -16 L 15.390625 -15.65625 L 13.953125 -14.8125 Z M 16.171875 -16.546875 L 19.3125 -18.328125 L 19.484375 -18 L 16.375 -16.171875 Z M 0.9375 -9.28125 L 2.765625 -10.296875 L 2.9375 -9.953125 L 1.109375 -8.921875 Z M 3.578125 -10.796875 L 6.25 -12.34375 L 6.515625 -12 L 3.828125 -10.4375 Z M 13.65625 -16.59375 L 15.15625 -17.484375 L 15.34375 -17.109375 L 13.875 -16.21875 Z M 16.140625 -18.046875 L 19.265625 -19.84375 L 19.4375 -19.484375 L 16.328125 -17.703125 Z M 0.8125 -10.71875 L 2.671875 -11.734375 L 2.859375 -11.40625 L 0.984375 -10.34375 Z M 3.484375 -12.21875 L 6.25 -13.875 L 6.421875 -13.515625 L 3.703125 -11.859375 Z M 13.609375 -18.09375 L 15.109375 -18.9375 L 15.28125 -18.59375 L 13.828125 -17.75 Z M 15.875 -19.40625 L 18.71875 -21.015625 L 18.859375 -20.640625 L 16.09375 -19.03125 Z M 0.671875 -12.125 L 2.59375 -13.234375 L 2.765625 -12.890625 L 0.890625 -11.78125 Z M 3.390625 -13.734375 L 6.203125 -15.34375 L 6.375 -14.984375 L 3.609375 -13.375 Z M 13.5625 -19.578125 L 16.046875 -21.015625 L 16.328125 -20.640625 L 13.828125 -19.234375 Z M 0.59375 -13.609375 L 2.5 -14.671875 L 2.671875 -14.3125 L 0.765625 -13.234375 Z M 3.3125 -15.15625 L 6.125 -16.8125 L 6.296875 -16.46875 L 3.53125 -14.8125 Z M 0.4375 -15.03125 L 2.421875 -16.140625 L 2.59375 -15.828125 L 0.671875 -14.671875 Z M 3.203125 -16.640625 L 6.078125 -18.296875 L 6.25 -17.96875 L 3.4375 -16.28125 Z M 0.390625 -16.5 L 2.3125 -17.609375 L 2.5 -17.265625 L 0.59375 -16.140625 Z M 3.15625 -18.09375 L 6.015625 -19.75 L 6.203125 -19.40625 L 3.359375 -17.75 Z M 0.21875 -17.96875 L 2.21875 -19.140625 L 2.5 -18.765625 L 0.5 -17.609375 Z M 2.671875 -19.359375 L 5.53125 -20.96875 L 5.703125 -20.59375 L 2.890625 -18.984375 Z M 0.171875 -19.40625 L 3.109375 -21.09375 L 3.390625 -20.734375 L 0.390625 -19.03125 Z M 0.171875 -19.40625 "/></g></g></g><g fill="rgb(85.488892%, 12.548828%, 98.429871%)" fill-opacity="1"><g transform="translate(135.071249, 64.707828)"><g><path d="M 16.765625 -0.21875 L 19.1875 -1.609375 L 19.359375 -1.234375 L 16.984375 0.125 Z M 13.609375 0.09375 L 20.421875 -3.828125 L 20.59375 -3.484375 L 13.78125 0.4375 Z M 10.75 0.21875 L 14.625 -2.046875 L 14.890625 -1.703125 L 10.96875 0.59375 Z M 17.828125 -3.875 L 20.765625 -5.53125 L 20.96875 -5.21875 L 18 -3.53125 Z M 7.953125 0.3125 L 11.6875 -1.828125 L 11.859375 -1.484375 L 8.125 0.671875 Z M 13.109375 -2.671875 L 17.359375 -5.140625 L 17.53125 -4.765625 L 13.28125 -2.3125 Z M 18.421875 -5.703125 L 20.859375 -7.140625 L 21.0625 -6.765625 L 18.59375 -5.359375 Z M 5.578125 0.171875 L 8.6875 -1.609375 L 8.890625 -1.234375 L 5.75 0.546875 Z M 10.21875 -2.5 L 17.609375 -6.765625 L 17.796875 -6.421875 L 10.390625 -2.140625 Z M 18.515625 -7.3125 L 20.921875 -8.6875 L 21.09375 -8.34375 L 18.71875 -6.953125 Z M 3.828125 -0.34375 L 6.34375 -1.78125 L 6.546875 -1.4375 L 4.09375 0 Z M 7.453125 -2.453125 L 11.953125 -5.03125 L 12.125 -4.6875 L 7.671875 -2.09375 Z M 14.546875 -6.515625 L 17.65625 -8.34375 L 17.921875 -7.984375 L 14.765625 -6.15625 Z M 18.640625 -8.890625 L 21.015625 -10.21875 L 21.1875 -9.859375 L 18.8125 -8.515625 Z M 2.640625 -1.15625 L 4.859375 -2.453125 L 5.03125 -2.09375 L 2.859375 -0.84375 Z M 5.65625 -2.9375 L 9.234375 -4.984375 L 9.40625 -4.640625 L 5.875 -2.59375 Z M 14.625 -8.078125 L 17.75 -9.859375 L 17.921875 -9.53125 L 14.84375 -7.703125 Z M 18.640625 -10.390625 L 21.09375 -11.78125 L 21.28125 -11.453125 L 18.859375 -10.03125 Z M 1.921875 -2.21875 L 3.96875 -3.4375 L 4.25 -3.109375 L 2.171875 -1.875 Z M 4.71875 -3.875 L 7.703125 -5.625 L 7.984375 -5.3125 L 4.984375 -3.53125 Z M 14.71875 -9.625 L 17.828125 -11.453125 L 18 -11.109375 L 14.890625 -9.3125 Z M 18.71875 -11.953125 L 21.0625 -13.328125 L 21.3125 -12.984375 L 18.984375 -11.65625 Z M 1.4375 -3.484375 L 3.578125 -4.71875 L 3.75 -4.375 L 1.65625 -3.15625 Z M 4.375 -5.1875 L 7.234375 -6.8125 L 7.40625 -6.46875 L 4.5 -4.8125 Z M 14.765625 -11.1875 L 17.828125 -12.984375 L 18 -12.625 L 14.984375 -10.84375 Z M 18.6875 -13.453125 L 20.921875 -14.71875 L 21.09375 -14.34375 L 18.90625 -13.109375 Z M 1.234375 -4.90625 L 3.390625 -6.125 L 3.578125 -5.75 L 1.4375 -4.546875 Z M 4.203125 -6.59375 L 7.09375 -8.296875 L 7.359375 -7.953125 L 4.46875 -6.25 Z M 14.765625 -12.671875 L 17.609375 -14.3125 L 17.796875 -13.953125 L 14.9375 -12.296875 Z M 18.421875 -14.8125 L 20.421875 -16 L 20.6875 -15.65625 L 18.6875 -14.453125 Z M 1.203125 -6.375 L 3.359375 -7.578125 L 3.53125 -7.265625 L 1.375 -6.015625 Z M 4.140625 -8.078125 L 7.0625 -9.78125 L 7.3125 -9.453125 L 4.421875 -7.703125 Z M 14.421875 -13.953125 L 17.078125 -15.53125 L 17.265625 -15.15625 L 14.59375 -13.65625 Z M 17.828125 -16 L 19.796875 -17.109375 L 19.984375 -16.765625 L 18.046875 -15.65625 Z M 1.109375 -7.84375 L 3.3125 -9.109375 L 3.484375 -8.734375 L 1.28125 -7.484375 Z M 4.09375 -9.578125 L 7.015625 -11.234375 L 7.1875 -10.890625 L 4.296875 -9.234375 Z M 13.234375 -14.84375 L 15.921875 -16.375 L 16.09375 -16 L 13.40625 -14.5 Z M 16.890625 -16.9375 L 18.859375 -18.046875 L 19.03125 -17.703125 L 17.078125 -16.59375 Z M 1.0625 -9.359375 L 3.203125 -10.5625 L 3.390625 -10.21875 L 1.234375 -9.015625 Z M 4 -11.015625 L 6.90625 -12.71875 L 7.1875 -12.34375 L 4.296875 -10.640625 Z M 10.96875 -15.0625 L 14.125 -16.890625 L 14.421875 -16.546875 L 11.1875 -14.71875 Z M 15.28125 -17.578125 L 17.484375 -18.8125 L 17.65625 -18.46875 L 15.53125 -17.21875 Z M 1.015625 -10.84375 L 3.15625 -12.046875 L 3.359375 -11.734375 L 1.203125 -10.46875 Z M 3.921875 -12.484375 L 6.953125 -14.21875 L 7.140625 -13.875 L 4.140625 -12.125 Z M 8.25 -14.984375 L 11.734375 -16.984375 L 11.90625 -16.640625 L 8.46875 -14.625 Z M 13.109375 -17.796875 L 15.78125 -19.3125 L 15.953125 -18.9375 L 13.28125 -17.4375 Z M 0.984375 -12.296875 L 3.109375 -13.5625 L 3.3125 -13.1875 L 1.15625 -11.953125 Z M 3.875 -13.953125 L 8.921875 -16.890625 L 9.1875 -16.546875 L 4.140625 -13.65625 Z M 10.34375 -17.703125 L 13.453125 -19.53125 L 13.734375 -19.1875 L 10.609375 -17.359375 Z M 0.9375 -13.828125 L 3.0625 -15.03125 L 3.265625 -14.671875 L 1.109375 -13.453125 Z M 3.78125 -15.484375 L 6.25 -16.859375 L 6.421875 -16.5 L 4 -15.109375 Z M 7.578125 -17.65625 L 10.796875 -19.484375 L 11.015625 -19.140625 L 7.796875 -17.3125 Z M 0.84375 -15.234375 L 2.984375 -16.5 L 3.15625 -16.140625 L 1.0625 -14.890625 Z M 4.8125 -17.578125 L 8.171875 -19.4375 L 8.34375 -19.09375 L 4.984375 -17.21875 Z M 0.8125 -16.71875 L 2.9375 -18 L 3.109375 -17.65625 L 1.015625 -16.375 Z M 3.75 -18.421875 L 6.59375 -20.125 L 6.765625 -19.75 L 3.921875 -18.09375 Z M 0.765625 -18.203125 L 2.890625 -19.4375 L 3.0625 -19.09375 L 0.9375 -17.875 Z M 3.65625 -19.921875 L 6.765625 -21.703125 L 6.953125 -21.359375 L 3.875 -19.578125 Z M 0.71875 -19.703125 L 2.859375 -20.921875 L 3.03125 -20.5625 L 0.890625 -19.359375 Z M 3.609375 -21.40625 L 6.953125 -23.3125 L 7.140625 -22.96875 L 3.78125 -21.0625 Z M 0.625 -21.1875 L 2.765625 -22.421875 L 2.9375 -22.078125 L 0.84375 -20.8125 Z M 3.53125 -22.84375 L 7.140625 -24.9375 L 7.40625 -24.5625 L 3.78125 -22.46875 Z M 0.59375 -22.640625 L 2.71875 -23.90625 L 2.890625 -23.53125 L 0.8125 -22.34375 Z M 3.484375 -24.34375 L 7.3125 -26.59375 L 7.578125 -26.21875 L 3.75 -24 Z M 0.59375 -24.171875 L 2.71875 -25.359375 L 2.890625 -25.015625 L 0.765625 -23.828125 Z M 3.109375 -25.65625 L 6.8125 -27.78125 L 7.015625 -27.4375 L 3.3125 -25.28125 Z M 0.5 -25.65625 L 4.296875 -27.828125 L 4.46875 -27.484375 L 0.71875 -25.28125 Z M 0.5 -27.15625 L 1.53125 -27.734375 L 1.703125 -27.375 L 0.71875 -26.796875 Z M 0.5 -27.15625 "/></g></g></g><g fill="rgb(85.488892%, 12.548828%, 98.429871%)" fill-opacity="1"><g transform="translate(157.496804, 64.707828)"><g><path d="M 16.171875 0.09375 L 18.203125 -1.0625 L 18.46875 -0.765625 L 16.46875 0.4375 Z M 13.109375 0.34375 L 19.359375 -3.203125 L 19.53125 -2.890625 L 13.28125 0.71875 Z M 10.4375 0.390625 L 14.3125 -1.875 L 14.59375 -1.53125 L 10.640625 0.765625 Z M 16.984375 -3.390625 L 19.484375 -4.859375 L 19.75 -4.5 L 17.21875 -3.0625 Z M 7.84375 0.390625 L 11.65625 -1.78125 L 11.828125 -1.4375 L 8.078125 0.765625 Z M 12.890625 -2.546875 L 16.640625 -4.6875 L 16.8125 -4.328125 L 13.0625 -2.171875 Z M 17.390625 -5.1875 L 19.578125 -6.375 L 19.75 -6.015625 L 17.578125 -4.8125 Z M 5.703125 0.09375 L 9.0625 -1.828125 L 9.234375 -1.484375 L 5.921875 0.4375 Z M 10.21875 -2.5 L 16.71875 -6.25 L 16.890625 -5.875 L 10.390625 -2.140625 Z M 17.21875 -6.546875 L 19.234375 -7.671875 L 19.40625 -7.359375 L 17.390625 -6.203125 Z M 4.140625 -0.546875 L 7.015625 -2.140625 L 7.1875 -1.78125 L 4.328125 -0.171875 Z M 7.84375 -2.671875 L 10.640625 -4.296875 L 10.84375 -3.921875 L 8.078125 -2.3125 Z M 14.265625 -6.34375 L 16.984375 -7.875 L 17.15625 -7.53125 L 14.453125 -5.96875 Z M 3.03125 -1.375 L 5.578125 -2.890625 L 5.828125 -2.546875 L 3.3125 -1.0625 Z M 6.296875 -3.265625 L 8.734375 -4.71875 L 9.015625 -4.375 L 6.515625 -2.9375 Z M 2.3125 -2.546875 L 4.765625 -3.921875 L 4.9375 -3.578125 L 2.546875 -2.171875 Z M 5.4375 -4.296875 L 8.125 -5.796875 L 8.296875 -5.4375 L 5.625 -3.921875 Z M 14.84375 -9.71875 L 17.609375 -11.328125 L 17.796875 -10.96875 L 15.03125 -9.40625 Z M 2 -3.78125 L 4.375 -5.21875 L 4.546875 -4.859375 L 2.171875 -3.4375 Z M 5.03125 -5.578125 L 7.953125 -7.265625 L 8.125 -6.90625 L 5.265625 -5.265625 Z M 11.90625 -9.53125 L 18.25 -13.1875 L 18.515625 -12.84375 L 12.125 -9.1875 Z M 1.875 -5.265625 L 4.203125 -6.59375 L 4.375 -6.25 L 2 -4.90625 Z M 4.859375 -7.015625 L 7.796875 -8.6875 L 8.078125 -8.34375 L 5.140625 -6.640625 Z M 9.0625 -9.40625 L 11.578125 -10.890625 L 11.859375 -10.515625 L 9.28125 -9.0625 Z M 12.984375 -11.6875 L 15.34375 -13.015625 L 15.53125 -12.671875 L 13.15625 -11.328125 Z M 16.328125 -13.65625 L 18.328125 -14.765625 L 18.515625 -14.421875 L 16.546875 -13.28125 Z M 1.65625 -6.640625 L 4.09375 -8.03125 L 4.25 -7.671875 L 1.875 -6.296875 Z M 4.71875 -8.421875 L 8.78125 -10.75 L 8.96875 -10.390625 L 4.90625 -8.078125 Z M 10.125 -11.546875 L 15.53125 -14.671875 L 15.78125 -14.3125 L 10.390625 -11.1875 Z M 16.328125 -15.109375 L 18.25 -16.171875 L 18.421875 -15.875 L 16.546875 -14.765625 Z M 1.53125 -8.078125 L 3.921875 -9.5 L 4.09375 -9.140625 L 1.734375 -7.703125 Z M 4.546875 -9.8125 L 6.015625 -10.640625 L 6.203125 -10.296875 L 4.71875 -9.5 Z M 7.359375 -11.453125 L 9.859375 -12.890625 L 10.125 -12.515625 L 7.578125 -11.109375 Z M 12.84375 -14.625 L 15.484375 -16.09375 L 15.65625 -15.78125 L 13.015625 -14.265625 Z M 16.28125 -16.59375 L 18.09375 -17.65625 L 18.296875 -17.3125 L 16.46875 -16.21875 Z M 1.4375 -9.53125 L 3.78125 -10.890625 L 3.96875 -10.515625 L 1.609375 -9.1875 Z M 5.03125 -11.65625 L 7.1875 -12.84375 L 7.359375 -12.484375 L 5.21875 -11.28125 Z M 12.71875 -16.046875 L 15.15625 -17.484375 L 15.34375 -17.109375 L 12.9375 -15.75 Z M 15.921875 -17.921875 L 17.703125 -18.90625 L 17.875 -18.546875 L 16.09375 -17.578125 Z M 1.28125 -10.96875 L 3.65625 -12.296875 L 3.828125 -11.953125 L 1.484375 -10.609375 Z M 4.328125 -12.765625 L 5.921875 -13.703125 L 6.203125 -13.328125 L 4.546875 -12.390625 Z M 11.828125 -17.03125 L 14.265625 -18.421875 L 14.453125 -18.09375 L 12.046875 -16.671875 Z M 15.03125 -18.90625 L 16.9375 -19.984375 L 17.078125 -19.625 L 15.203125 -18.546875 Z M 1.109375 -12.390625 L 3.4375 -13.78125 L 3.703125 -13.40625 L 1.375 -12.046875 Z M 4.140625 -14.125 L 5.796875 -15.109375 L 6.078125 -14.765625 L 4.421875 -13.828125 Z M 9.40625 -17.15625 L 12.484375 -18.90625 L 12.671875 -18.546875 L 9.578125 -16.8125 Z M 13.375 -19.484375 L 15.609375 -20.765625 L 15.875 -20.421875 L 13.65625 -19.140625 Z M 1.015625 -13.875 L 3.3125 -15.15625 L 3.578125 -14.8125 L 1.234375 -13.515625 Z M 4.140625 -15.65625 L 9.8125 -18.90625 L 10.078125 -18.546875 L 4.328125 -15.28125 Z M 10.9375 -19.578125 L 13.828125 -21.234375 L 14 -20.859375 L 11.109375 -19.234375 Z M 0.890625 -15.28125 L 3.390625 -16.71875 L 3.65625 -16.375 L 1.109375 -14.9375 Z M 4.46875 -17.359375 L 7.015625 -18.8125 L 7.265625 -18.46875 L 4.71875 -16.984375 Z M 8.203125 -19.484375 L 11.234375 -21.234375 L 11.40625 -20.859375 L 8.421875 -19.140625 Z M 0.9375 -16.8125 L 8.46875 -21.234375 L 8.734375 -20.859375 L 1.203125 -16.46875 Z M 1.484375 -18.640625 L 5.796875 -21.09375 L 5.96875 -20.734375 L 1.65625 -18.296875 Z M 1.484375 -18.640625 "/></g></g></g><g fill="rgb(85.488892%, 12.548828%, 98.429871%)" fill-opacity="1"><g transform="translate(177.723354, 64.707828)"><g/></g></g><g fill="rgb(85.488892%, 12.548828%, 98.429871%)" fill-opacity="1"><g transform="translate(191.091598, 64.707828)"><g><path d="M 27.828125 -1.953125 L 32.109375 -4.421875 L 32.25 -4.046875 L 28 -1.609375 Z M 25.0625 -1.921875 L 32.46875 -6.203125 L 32.640625 -5.828125 L 25.234375 -1.5625 Z M 22.640625 -2.046875 L 27.609375 -4.90625 L 27.78125 -4.546875 L 22.84375 -1.703125 Z M 29.390625 -5.921875 L 32.859375 -7.953125 L 33.046875 -7.578125 L 29.53125 -5.578125 Z M 21.484375 -2.890625 L 24.671875 -4.71875 L 24.9375 -4.375 L 21.703125 -2.546875 Z M 26.171875 -5.625 L 28.890625 -7.1875 L 29.15625 -6.8125 L 26.4375 -5.265625 Z M 29.828125 -7.703125 L 33.265625 -9.671875 L 33.453125 -9.359375 L 30 -7.359375 Z M 20.96875 -4.09375 L 23.109375 -5.359375 L 23.28125 -4.984375 L 21.1875 -3.78125 Z M 23.953125 -5.828125 L 29.25 -8.890625 L 29.4375 -8.515625 L 24.078125 -5.484375 Z M 30.09375 -9.359375 L 33.625 -11.40625 L 33.796875 -11.0625 L 30.328125 -9.0625 Z M 12.890625 -0.984375 L 16.890625 -3.3125 L 17.078125 -2.9375 L 13.0625 -0.625 Z M 20.640625 -5.4375 L 22.390625 -6.46875 L 22.5625 -6.125 L 20.859375 -5.078125 Z M 23.109375 -6.8125 L 29.4375 -10.515625 L 29.703125 -10.171875 L 23.3125 -6.515625 Z M 30.421875 -11.109375 L 34.03125 -13.15625 L 34.203125 -12.796875 L 30.59375 -10.75 Z M 10.4375 -1.0625 L 17.3125 -5.03125 L 17.484375 -4.6875 L 10.640625 -0.71875 Z M 20.375 -6.765625 L 21.953125 -7.703125 L 22.203125 -7.359375 L 20.59375 -6.46875 Z M 22.6875 -8.171875 L 25.1875 -9.578125 L 25.453125 -9.28125 L 22.96875 -7.796875 Z M 27.703125 -11.0625 L 29.703125 -12.21875 L 29.96875 -11.90625 L 27.953125 -10.71875 Z M 30.6875 -12.765625 L 34.421875 -14.890625 L 34.59375 -14.59375 L 30.890625 -12.390625 Z M 8.03125 -1.203125 L 13.828125 -4.5 L 14 -4.140625 L 8.171875 -0.84375 Z M 15.0625 -5.265625 L 17.65625 -6.765625 L 17.921875 -6.46875 L 15.34375 -4.90625 Z M 20.078125 -8.171875 L 21.625 -9.0625 L 21.796875 -8.6875 L 20.25 -7.796875 Z M 22.34375 -9.453125 L 24.84375 -10.9375 L 25.109375 -10.5625 L 22.609375 -9.140625 Z M 27.875 -12.671875 L 30 -13.90625 L 30.171875 -13.5625 L 28.09375 -12.296875 Z M 30.984375 -14.5 L 34.78125 -16.640625 L 34.921875 -16.28125 L 31.1875 -14.125 Z M 6.15625 -1.65625 L 11.234375 -4.59375 L 11.5 -4.25 L 6.421875 -1.328125 Z M 12.4375 -5.265625 L 14.890625 -6.6875 L 15.0625 -6.34375 L 12.671875 -4.90625 Z M 15.953125 -7.265625 L 18.09375 -8.515625 L 18.296875 -8.171875 L 16.09375 -6.90625 Z M 19.796875 -9.5 L 21.3125 -10.34375 L 21.453125 -10 L 19.984375 -9.1875 Z M 22.03125 -10.796875 L 24.5625 -12.265625 L 24.84375 -11.953125 L 22.25 -10.4375 Z M 28.09375 -14.3125 L 30.328125 -15.5625 L 30.5 -15.203125 L 28.265625 -13.953125 Z M 31.265625 -16.140625 L 35.09375 -18.375 L 35.359375 -18 L 31.53125 -15.78125 Z M 5.3125 -2.671875 L 9.140625 -4.859375 L 9.3125 -4.5 L 5.4375 -2.3125 Z M 10.21875 -5.484375 L 15.390625 -8.46875 L 15.5625 -8.125 L 10.390625 -5.140625 Z M 16.375 -9.109375 L 18.515625 -10.25 L 18.6875 -9.90625 L 16.546875 -8.734375 Z M 19.4375 -10.84375 L 20.96875 -11.734375 L 21.140625 -11.359375 L 19.65625 -10.46875 Z M 21.625 -12.078125 L 24.296875 -13.65625 L 24.46875 -13.28125 L 21.859375 -11.78125 Z M 28.21875 -15.921875 L 30.546875 -17.3125 L 30.8125 -16.9375 L 28.5 -15.5625 Z M 31.578125 -17.828125 L 35.53125 -20.125 L 35.703125 -19.796875 L 31.796875 -17.484375 Z M 4.8125 -3.921875 L 7.875 -5.65625 L 8.03125 -5.3125 L 5.03125 -3.578125 Z M 8.59375 -6.125 L 11.15625 -7.578125 L 11.40625 -7.234375 L 8.890625 -5.75 Z M 14.09375 -9.28125 L 15.875 -10.25 L 16.046875 -9.90625 L 14.265625 -8.921875 Z M 16.8125 -10.84375 L 18.8125 -12.046875 L 19.09375 -11.6875 L 17.078125 -10.46875 Z M 19.140625 -12.171875 L 20.5625 -13.015625 L 20.8125 -12.671875 L 19.40625 -11.859375 Z M 21.3125 -13.40625 L 24.078125 -14.984375 L 24.21875 -14.671875 L 21.453125 -13.0625 Z M 28.421875 -17.53125 L 30.859375 -18.9375 L 31.03125 -18.59375 L 28.640625 -17.21875 Z M 31.875 -19.53125 L 35.90625 -21.859375 L 36.078125 -21.484375 L 32.078125 -19.1875 Z M 4.5 -5.265625 L 7.234375 -6.8125 L 7.484375 -6.515625 L 4.765625 -4.90625 Z M 8.03125 -7.265625 L 10.515625 -8.734375 L 10.75 -8.390625 L 8.203125 -6.90625 Z M 14.453125 -11.015625 L 16.21875 -12.046875 L 16.5 -11.734375 L 14.71875 -10.640625 Z M 17.265625 -12.625 L 20.203125 -14.34375 L 20.46875 -14 L 17.53125 -12.265625 Z M 20.921875 -14.71875 L 23.78125 -16.375 L 23.953125 -16 L 21.140625 -14.421875 Z M 28.640625 -19.1875 L 31.140625 -20.59375 L 31.40625 -20.25 L 28.84375 -18.8125 Z M 32.109375 -21.1875 L 36.25 -23.578125 L 36.515625 -23.234375 L 32.375 -20.8125 Z M 4.296875 -6.640625 L 6.953125 -8.171875 L 7.140625 -7.796875 L 4.46875 -6.296875 Z M 7.75 -8.640625 L 10.4375 -10.171875 L 10.609375 -9.8125 L 7.953125 -8.296875 Z M 14.84375 -12.765625 L 16.765625 -13.875 L 16.9375 -13.515625 L 15.0625 -12.390625 Z M 17.75 -14.453125 L 19.875 -15.65625 L 20.078125 -15.28125 L 17.96875 -14.09375 Z M 20.59375 -16.046875 L 23.453125 -17.65625 L 23.625 -17.359375 L 20.765625 -15.703125 Z M 28.8125 -20.765625 L 31.4375 -22.296875 L 31.609375 -21.953125 L 28.984375 -20.421875 Z M 32.421875 -22.890625 L 36.71875 -25.359375 L 36.890625 -25.015625 L 32.59375 -22.5625 Z M 3.96875 -7.984375 L 6.6875 -9.53125 L 6.953125 -9.234375 L 4.25 -7.625 Z M 7.53125 -10.03125 L 10.296875 -11.65625 L 10.46875 -11.28125 L 7.703125 -9.671875 Z M 15.28125 -14.546875 L 17.265625 -15.609375 L 17.4375 -15.234375 L 15.484375 -14.171875 Z M 18.203125 -16.171875 L 19.484375 -16.984375 L 19.75 -16.640625 L 18.46875 -15.828125 Z M 20.25 -17.390625 L 23.1875 -19.03125 L 23.359375 -18.6875 L 20.421875 -17.03125 Z M 28.9375 -22.421875 L 31.65625 -24 L 31.921875 -23.625 L 29.203125 -22.078125 Z M 32.6875 -24.5625 L 36.75 -26.9375 L 37.015625 -26.59375 L 32.9375 -24.21875 Z M 3.65625 -9.359375 L 6.515625 -10.96875 L 6.6875 -10.609375 L 3.875 -9.015625 Z M 7.265625 -11.40625 L 10.171875 -13.0625 L 10.34375 -12.71875 L 7.484375 -11.0625 Z M 15.65625 -16.21875 L 17.65625 -17.390625 L 17.921875 -17.078125 L 15.921875 -15.875 Z M 18.6875 -17.96875 L 19.140625 -18.296875 L 19.40625 -17.921875 L 18.90625 -17.609375 Z M 19.875 -18.6875 L 22.84375 -20.375 L 23.109375 -20.078125 L 20.125 -18.328125 Z M 29.15625 -24.03125 L 35.3125 -27.609375 L 35.484375 -27.234375 L 29.359375 -23.671875 Z M 3.390625 -10.71875 L 6.296875 -12.34375 L 6.46875 -12.046875 L 3.609375 -10.34375 Z M 7.09375 -12.796875 L 10 -14.546875 L 10.25 -14.171875 L 7.359375 -12.4375 Z M 16.046875 -17.96875 L 18.203125 -19.234375 L 18.375 -18.859375 L 16.21875 -17.609375 Z M 19.4375 -19.984375 L 22.5625 -21.75 L 22.734375 -21.40625 L 19.65625 -19.625 Z M 29.359375 -25.65625 L 32.9375 -27.734375 L 33.140625 -27.375 L 29.484375 -25.328125 Z M 3.0625 -12.046875 L 6.015625 -13.78125 L 6.296875 -13.40625 L 3.359375 -11.734375 Z M 6.859375 -14.21875 L 9.859375 -15.953125 L 10.125 -15.609375 L 7.140625 -13.875 Z M 16.46875 -19.75 L 22.03125 -22.921875 L 22.203125 -22.609375 L 16.640625 -19.40625 Z M 2.859375 -13.40625 L 5.875 -15.109375 L 6.078125 -14.765625 L 3.03125 -13.0625 Z M 6.640625 -15.609375 L 9.78125 -17.390625 L 9.953125 -17.078125 L 6.859375 -15.234375 Z M 16.8125 -21.484375 L 19.359375 -22.96875 L 19.625 -22.640625 L 17.078125 -21.140625 Z M 2.59375 -14.765625 L 5.65625 -16.546875 L 5.828125 -16.171875 L 2.71875 -14.453125 Z M 6.46875 -17.03125 L 9.625 -18.8125 L 9.8125 -18.46875 L 6.640625 -16.671875 Z M 2.265625 -16.09375 L 5.40625 -17.921875 L 5.65625 -17.578125 L 2.546875 -15.75 Z M 6.25 -18.421875 L 9.453125 -20.25 L 9.71875 -19.921875 L 6.46875 -18.046875 Z M 1.953125 -17.4375 L 5.21875 -19.359375 L 5.4375 -18.984375 L 2.21875 -17.109375 Z M 6.015625 -19.796875 L 9.40625 -21.703125 L 9.578125 -21.359375 L 6.203125 -19.4375 Z M 1.734375 -18.8125 L 5.03125 -20.6875 L 5.21875 -20.34375 L 1.921875 -18.46875 Z M 5.796875 -21.1875 L 9.28125 -23.140625 L 9.453125 -22.796875 L 5.96875 -20.8125 Z M 1.4375 -20.15625 L 4.8125 -22.125 L 4.984375 -21.75 L 1.609375 -19.84375 Z M 5.625 -22.609375 L 9.140625 -24.609375 L 9.3125 -24.25 L 5.796875 -22.25 Z M 1.15625 -21.53125 L 4.59375 -23.5 L 4.765625 -23.140625 L 1.328125 -21.1875 Z M 5.40625 -24 L 9.015625 -26.046875 L 9.1875 -25.6875 L 5.578125 -23.625 Z M 0.84375 -22.890625 L 4.375 -24.9375 L 4.546875 -24.5625 L 1.0625 -22.5625 Z M 5.21875 -25.40625 L 8.890625 -27.515625 L 9.0625 -27.15625 L 5.359375 -25.0625 Z M 0.59375 -24.25 L 7.75 -28.375 L 7.953125 -28.046875 L 0.765625 -23.90625 Z M 0.265625 -25.609375 L 4.375 -28 L 4.640625 -27.65625 L 0.546875 -25.28125 Z M 0.125 -27.0625 L 1.015625 -27.5625 L 1.203125 -27.203125 L 0.34375 -26.71875 Z M 0.125 -27.0625 "/></g></g></g><g fill="rgb(85.488892%, 12.548828%, 98.429871%)" fill-opacity="1"><g transform="translate(228.540096, 64.707828)"><g><path d="M 16.21875 0.09375 L 20.296875 -2.265625 L 20.5625 -1.921875 L 16.46875 0.4375 Z M 13.65625 0.046875 L 20.765625 -4.046875 L 20.96875 -3.703125 L 13.875 0.390625 Z M 11.15625 -0.046875 L 13.65625 -1.484375 L 13.90625 -1.109375 L 11.40625 0.3125 Z M 14.984375 -2.21875 L 16.765625 -3.203125 L 16.9375 -2.890625 L 15.15625 -1.875 Z M 17.921875 -3.921875 L 20.8125 -5.578125 L 21.015625 -5.265625 L 18.09375 -3.578125 Z M 8.6875 -0.125 L 11.1875 -1.53125 L 11.359375 -1.15625 L 8.890625 0.21875 Z M 12.390625 -2.21875 L 17.21875 -5.03125 L 17.390625 -4.6875 L 12.578125 -1.875 Z M 18 -5.484375 L 20.734375 -7.09375 L 21.015625 -6.734375 L 18.296875 -5.1875 Z M 6.296875 -0.21875 L 8.6875 -1.609375 L 8.890625 -1.234375 L 6.46875 0.125 Z M 9.859375 -2.3125 L 12.578125 -3.828125 L 12.765625 -3.484375 L 10.03125 -1.953125 Z M 15.390625 -5.484375 L 17.15625 -6.515625 L 17.359375 -6.15625 L 15.5625 -5.1875 Z M 17.96875 -7.015625 L 20.6875 -8.515625 L 20.859375 -8.171875 L 18.15625 -6.640625 Z M 4.46875 -0.71875 L 6.59375 -1.921875 L 6.765625 -1.5625 L 4.640625 -0.34375 Z M 7.53125 -2.5 L 10.171875 -3.96875 L 10.34375 -3.609375 L 7.703125 -2.140625 Z M 15.234375 -6.953125 L 17.078125 -7.984375 L 17.3125 -7.625 L 15.53125 -6.59375 Z M 17.828125 -8.421875 L 20.5625 -10 L 20.8125 -9.625 L 18.09375 -8.078125 Z M 3.3125 -1.53125 L 5.359375 -2.765625 L 5.625 -2.421875 L 3.578125 -1.15625 Z M 6.078125 -3.15625 L 8.96875 -4.859375 L 9.234375 -4.5 L 6.34375 -2.8125 Z M 14.71875 -8.125 L 16.5 -9.140625 L 16.671875 -8.78125 L 14.890625 -7.75 Z M 17.75 -9.859375 L 20.421875 -11.453125 L 20.6875 -11.109375 L 18 -9.53125 Z M 2.59375 -2.671875 L 4.8125 -3.921875 L 4.984375 -3.578125 L 2.765625 -2.3125 Z M 5.53125 -4.375 L 8.734375 -6.25 L 9.015625 -5.875 L 5.796875 -4 Z M 12.625 -8.421875 L 15.03125 -9.8125 L 15.203125 -9.5 L 12.796875 -8.078125 Z M 15.921875 -10.34375 L 16.9375 -10.9375 L 17.109375 -10.5625 L 16.140625 -10 Z M 17.65625 -11.359375 L 20.375 -12.890625 L 20.5625 -12.515625 L 17.828125 -11.015625 Z M 2.21875 -3.96875 L 4.6875 -5.359375 L 4.859375 -5.03125 L 2.453125 -3.609375 Z M 5.484375 -5.796875 L 9.015625 -7.875 L 9.28125 -7.53125 L 5.75 -5.4375 Z M 9.8125 -8.34375 L 12.671875 -9.953125 L 12.84375 -9.625 L 10.03125 -7.984375 Z M 14 -10.75 L 16.859375 -12.34375 L 17.03125 -12 L 14.21875 -10.390625 Z M 17.53125 -12.796875 L 20.25 -14.34375 L 20.515625 -14 L 17.796875 -12.4375 Z M 2.171875 -5.40625 L 4.59375 -6.8125 L 4.765625 -6.46875 L 2.3125 -5.078125 Z M 5.484375 -7.359375 L 9.90625 -9.859375 L 10.078125 -9.53125 L 5.65625 -7.015625 Z M 11.28125 -10.71875 L 16.71875 -13.828125 L 16.890625 -13.453125 L 11.453125 -10.34375 Z M 17.4375 -14.21875 L 20.203125 -15.828125 L 20.375 -15.484375 L 17.609375 -13.875 Z M 2.09375 -6.90625 L 4.71875 -8.421875 L 4.90625 -8.078125 L 2.265625 -6.546875 Z M 8.5625 -10.609375 L 10.890625 -11.953125 L 11.0625 -11.65625 L 8.6875 -10.25 Z M 13.28125 -13.375 L 16.546875 -15.234375 L 16.8125 -14.890625 L 13.5625 -13.015625 Z M 17.3125 -15.703125 L 20.03125 -17.265625 L 20.296875 -16.890625 L 17.578125 -15.34375 Z M 2.171875 -8.46875 L 8.078125 -11.859375 L 8.34375 -11.546875 L 2.421875 -8.125 Z M 13.1875 -14.84375 L 16.375 -16.640625 L 16.546875 -16.28125 L 13.40625 -14.5 Z M 17.109375 -17.078125 L 19.75 -18.59375 L 19.921875 -18.25 L 17.3125 -16.71875 Z M 3.0625 -10.46875 L 4.8125 -11.5 L 4.984375 -11.15625 L 3.265625 -10.125 Z M 13.015625 -16.21875 L 15.78125 -17.828125 L 15.953125 -17.484375 L 13.1875 -15.921875 Z M 16.59375 -18.25 L 19.140625 -19.75 L 19.359375 -19.40625 L 16.8125 -17.921875 Z M 11.953125 -17.109375 L 14.625 -18.640625 L 14.8125 -18.296875 L 12.125 -16.765625 Z M 15.53125 -19.1875 L 18.203125 -20.734375 L 18.46875 -20.375 L 15.78125 -18.8125 Z M 3.203125 -13.609375 L 5.65625 -14.984375 L 5.828125 -14.625 L 3.4375 -13.234375 Z M 9.3125 -17.109375 L 12.578125 -18.984375 L 12.84375 -18.640625 L 9.578125 -16.765625 Z M 13.875 -19.75 L 16.8125 -21.453125 L 17.078125 -21.09375 L 14.09375 -19.40625 Z M 0.71875 -13.703125 L 3.15625 -15.0625 L 3.359375 -14.71875 L 0.9375 -13.328125 Z M 3.96875 -15.53125 L 5.96875 -16.671875 L 6.25 -16.328125 L 4.203125 -15.15625 Z M 6.421875 -16.9375 L 9.90625 -18.9375 L 10.078125 -18.59375 L 6.59375 -16.59375 Z M 11.28125 -19.75 L 14.890625 -21.796875 L 15.03125 -21.453125 L 11.453125 -19.40625 Z M 0.34375 -14.984375 L 3.03125 -16.5 L 3.203125 -16.140625 L 0.546875 -14.625 Z M 3.921875 -17.03125 L 7.09375 -18.859375 L 7.359375 -18.515625 L 4.140625 -16.671875 Z M 8.515625 -19.65625 L 12.265625 -21.859375 L 12.4375 -21.484375 L 8.6875 -19.3125 Z M 0.265625 -16.46875 L 3.359375 -18.203125 L 3.53125 -17.875 L 0.5 -16.09375 Z M 5.703125 -19.578125 L 9.53125 -21.796875 L 9.8125 -21.453125 L 5.921875 -19.234375 Z M 0.265625 -17.96875 L 6.859375 -21.75 L 7.140625 -21.40625 L 0.5 -17.609375 Z M 0.671875 -19.703125 L 4.09375 -21.671875 L 4.296875 -21.3125 L 0.84375 -19.359375 Z M 0.671875 -19.703125 "/></g></g></g><g fill="rgb(85.488892%, 12.548828%, 98.429871%)" fill-opacity="1"><g transform="translate(250.464892, 64.707828)"><g><path d="M 6.765625 -0.59375 L 7.484375 -1.015625 L 7.75 -0.671875 L 7.0625 -0.21875 Z M 3.921875 -0.4375 L 7.703125 -2.640625 L 7.875 -2.265625 L 4.140625 -0.09375 Z M 2.21875 -0.984375 L 7.625 -4.09375 L 7.875 -3.75 L 2.453125 -0.625 Z M 2.046875 -2.375 L 3.875 -3.390625 L 4.046875 -3.0625 L 2.21875 -2 Z M 4.765625 -3.921875 L 7.625 -5.578125 L 7.796875 -5.265625 L 4.9375 -3.578125 Z M 1.875 -3.78125 L 3.78125 -4.90625 L 3.96875 -4.546875 L 2.09375 -3.4375 Z M 4.640625 -5.359375 L 7.53125 -7.09375 L 7.796875 -6.734375 L 4.90625 -5.03125 Z M 1.78125 -5.265625 L 3.703125 -6.34375 L 3.875 -5.96875 L 1.953125 -4.90625 Z M 4.59375 -6.859375 L 7.484375 -8.5625 L 7.75 -8.203125 L 4.8125 -6.515625 Z M 1.65625 -6.6875 L 3.609375 -7.796875 L 3.78125 -7.484375 L 1.875 -6.34375 Z M 4.46875 -8.296875 L 7.484375 -10.03125 L 7.671875 -9.671875 L 4.640625 -7.953125 Z M 1.53125 -8.125 L 3.53125 -9.28125 L 3.703125 -8.921875 L 1.734375 -7.75 Z M 4.328125 -9.71875 L 7.453125 -11.546875 L 7.625 -11.1875 L 4.546875 -9.40625 Z M 1.4375 -9.625 L 3.4375 -10.75 L 3.609375 -10.390625 L 1.65625 -9.28125 Z M 4.296875 -11.234375 L 7.40625 -13.0625 L 7.671875 -12.71875 L 4.5 -10.890625 Z M 1.328125 -11.0625 L 3.359375 -12.171875 L 3.53125 -11.828125 L 1.53125 -10.71875 Z M 4.140625 -12.671875 L 7.40625 -14.546875 L 7.625 -14.171875 L 4.421875 -12.296875 Z M 1.203125 -12.484375 L 3.203125 -13.65625 L 3.390625 -13.28125 L 1.4375 -12.125 Z M 4.09375 -14.125 L 7.40625 -16 L 7.53125 -15.703125 L 4.296875 -13.828125 Z M 1.0625 -13.90625 L 3.109375 -15.109375 L 3.359375 -14.765625 L 1.328125 -13.609375 Z M 3.96875 -15.609375 L 7.359375 -17.53125 L 7.484375 -17.15625 L 4.203125 -15.234375 Z M 0.984375 -15.390625 L 3.03125 -16.546875 L 3.265625 -16.171875 L 1.234375 -15.03125 Z M 3.921875 -17.078125 L 7.3125 -18.984375 L 7.453125 -18.640625 L 4.09375 -16.71875 Z M 0.890625 -16.8125 L 2.9375 -18.046875 L 3.15625 -17.703125 L 1.109375 -16.46875 Z M 3.828125 -18.515625 L 7.265625 -20.46875 L 7.40625 -20.15625 L 4 -18.15625 Z M 0.8125 -18.296875 L 2.890625 -19.484375 L 3.0625 -19.140625 L 0.984375 -17.96875 Z M 3.75 -20.03125 L 7.234375 -21.984375 L 7.40625 -21.625 L 3.921875 -19.65625 Z M 0.71875 -19.75 L 2.8125 -20.921875 L 2.984375 -20.5625 L 0.890625 -19.40625 Z M 3.609375 -21.453125 L 7.234375 -23.5 L 7.40625 -23.140625 L 3.828125 -21.09375 Z M 0.59375 -21.1875 L 2.71875 -22.421875 L 2.890625 -22.078125 L 0.765625 -20.8125 Z M 3.53125 -22.890625 L 7.140625 -24.96875 L 7.40625 -24.609375 L 3.78125 -22.515625 Z M 0.5 -22.609375 L 2.640625 -23.859375 L 2.8125 -23.5 L 0.671875 -22.296875 Z M 3.4375 -24.390625 L 7.09375 -26.5 L 7.359375 -26.125 L 3.703125 -24.03125 Z M 0.3125 -24.078125 L 5.65625 -27.15625 L 5.828125 -26.796875 L 0.546875 -23.734375 Z M 0.21875 -25.5 L 2.890625 -27.015625 L 3.0625 -26.71875 L 0.4375 -25.15625 Z M 0.21875 -25.5 "/></g></g></g><g fill="rgb(85.488892%, 12.548828%, 98.429871%)" fill-opacity="1"><g transform="translate(258.89081, 64.707828)"><g><path d="M 16.171875 0.09375 L 18.203125 -1.0625 L 18.46875 -0.765625 L 16.46875 0.4375 Z M 13.109375 0.34375 L 19.359375 -3.203125 L 19.53125 -2.890625 L 13.28125 0.71875 Z M 10.4375 0.390625 L 14.3125 -1.875 L 14.59375 -1.53125 L 10.640625 0.765625 Z M 16.984375 -3.390625 L 19.484375 -4.859375 L 19.75 -4.5 L 17.21875 -3.0625 Z M 7.84375 0.390625 L 11.65625 -1.78125 L 11.828125 -1.4375 L 8.078125 0.765625 Z M 12.890625 -2.546875 L 16.640625 -4.6875 L 16.8125 -4.328125 L 13.0625 -2.171875 Z M 17.390625 -5.1875 L 19.578125 -6.375 L 19.75 -6.015625 L 17.578125 -4.8125 Z M 5.703125 0.09375 L 9.0625 -1.828125 L 9.234375 -1.484375 L 5.921875 0.4375 Z M 10.21875 -2.5 L 16.71875 -6.25 L 16.890625 -5.875 L 10.390625 -2.140625 Z M 17.21875 -6.546875 L 19.234375 -7.671875 L 19.40625 -7.359375 L 17.390625 -6.203125 Z M 4.140625 -0.546875 L 7.015625 -2.140625 L 7.1875 -1.78125 L 4.328125 -0.171875 Z M 7.84375 -2.671875 L 10.640625 -4.296875 L 10.84375 -3.921875 L 8.078125 -2.3125 Z M 14.265625 -6.34375 L 16.984375 -7.875 L 17.15625 -7.53125 L 14.453125 -5.96875 Z M 3.03125 -1.375 L 5.578125 -2.890625 L 5.828125 -2.546875 L 3.3125 -1.0625 Z M 6.296875 -3.265625 L 8.734375 -4.71875 L 9.015625 -4.375 L 6.515625 -2.9375 Z M 2.3125 -2.546875 L 4.765625 -3.921875 L 4.9375 -3.578125 L 2.546875 -2.171875 Z M 5.4375 -4.296875 L 8.125 -5.796875 L 8.296875 -5.4375 L 5.625 -3.921875 Z M 14.84375 -9.71875 L 17.609375 -11.328125 L 17.796875 -10.96875 L 15.03125 -9.40625 Z M 2 -3.78125 L 4.375 -5.21875 L 4.546875 -4.859375 L 2.171875 -3.4375 Z M 5.03125 -5.578125 L 7.953125 -7.265625 L 8.125 -6.90625 L 5.265625 -5.265625 Z M 11.90625 -9.53125 L 18.25 -13.1875 L 18.515625 -12.84375 L 12.125 -9.1875 Z M 1.875 -5.265625 L 4.203125 -6.59375 L 4.375 -6.25 L 2 -4.90625 Z M 4.859375 -7.015625 L 7.796875 -8.6875 L 8.078125 -8.34375 L 5.140625 -6.640625 Z M 9.0625 -9.40625 L 11.578125 -10.890625 L 11.859375 -10.515625 L 9.28125 -9.0625 Z M 12.984375 -11.6875 L 15.34375 -13.015625 L 15.53125 -12.671875 L 13.15625 -11.328125 Z M 16.328125 -13.65625 L 18.328125 -14.765625 L 18.515625 -14.421875 L 16.546875 -13.28125 Z M 1.65625 -6.640625 L 4.09375 -8.03125 L 4.25 -7.671875 L 1.875 -6.296875 Z M 4.71875 -8.421875 L 8.78125 -10.75 L 8.96875 -10.390625 L 4.90625 -8.078125 Z M 10.125 -11.546875 L 15.53125 -14.671875 L 15.78125 -14.3125 L 10.390625 -11.1875 Z M 16.328125 -15.109375 L 18.25 -16.171875 L 18.421875 -15.875 L 16.546875 -14.765625 Z M 1.53125 -8.078125 L 3.921875 -9.5 L 4.09375 -9.140625 L 1.734375 -7.703125 Z M 4.546875 -9.8125 L 6.015625 -10.640625 L 6.203125 -10.296875 L 4.71875 -9.5 Z M 7.359375 -11.453125 L 9.859375 -12.890625 L 10.125 -12.515625 L 7.578125 -11.109375 Z M 12.84375 -14.625 L 15.484375 -16.09375 L 15.65625 -15.78125 L 13.015625 -14.265625 Z M 16.28125 -16.59375 L 18.09375 -17.65625 L 18.296875 -17.3125 L 16.46875 -16.21875 Z M 1.4375 -9.53125 L 3.78125 -10.890625 L 3.96875 -10.515625 L 1.609375 -9.1875 Z M 5.03125 -11.65625 L 7.1875 -12.84375 L 7.359375 -12.484375 L 5.21875 -11.28125 Z M 12.71875 -16.046875 L 15.15625 -17.484375 L 15.34375 -17.109375 L 12.9375 -15.75 Z M 15.921875 -17.921875 L 17.703125 -18.90625 L 17.875 -18.546875 L 16.09375 -17.578125 Z M 1.28125 -10.96875 L 3.65625 -12.296875 L 3.828125 -11.953125 L 1.484375 -10.609375 Z M 4.328125 -12.765625 L 5.921875 -13.703125 L 6.203125 -13.328125 L 4.546875 -12.390625 Z M 11.828125 -17.03125 L 14.265625 -18.421875 L 14.453125 -18.09375 L 12.046875 -16.671875 Z M 15.03125 -18.90625 L 16.9375 -19.984375 L 17.078125 -19.625 L 15.203125 -18.546875 Z M 1.109375 -12.390625 L 3.4375 -13.78125 L 3.703125 -13.40625 L 1.375 -12.046875 Z M 4.140625 -14.125 L 5.796875 -15.109375 L 6.078125 -14.765625 L 4.421875 -13.828125 Z M 9.40625 -17.15625 L 12.484375 -18.90625 L 12.671875 -18.546875 L 9.578125 -16.8125 Z M 13.375 -19.484375 L 15.609375 -20.765625 L 15.875 -20.421875 L 13.65625 -19.140625 Z M 1.015625 -13.875 L 3.3125 -15.15625 L 3.578125 -14.8125 L 1.234375 -13.515625 Z M 4.140625 -15.65625 L 9.8125 -18.90625 L 10.078125 -18.546875 L 4.328125 -15.28125 Z M 10.9375 -19.578125 L 13.828125 -21.234375 L 14 -20.859375 L 11.109375 -19.234375 Z M 0.890625 -15.28125 L 3.390625 -16.71875 L 3.65625 -16.375 L 1.109375 -14.9375 Z M 4.46875 -17.359375 L 7.015625 -18.8125 L 7.265625 -18.46875 L 4.71875 -16.984375 Z M 8.203125 -19.484375 L 11.234375 -21.234375 L 11.40625 -20.859375 L 8.421875 -19.140625 Z M 0.9375 -16.8125 L 8.46875 -21.234375 L 8.734375 -20.859375 L 1.203125 -16.46875 Z M 1.484375 -18.640625 L 5.796875 -21.09375 L 5.96875 -20.734375 L 1.65625 -18.296875 Z M 1.484375 -18.640625 "/></g></g></g><g fill="rgb(85.488892%, 12.548828%, 98.429871%)" fill-opacity="1"><g transform="translate(279.117371, 64.707828)"><g><path d="M 15.53125 0.5 L 18.328125 -1.109375 L 18.515625 -0.8125 L 15.75 0.84375 Z M 12.515625 0.671875 L 19.1875 -3.203125 L 19.4375 -2.859375 L 12.796875 1.015625 Z M 10.171875 0.59375 L 13.28125 -1.234375 L 13.5625 -0.9375 L 10.34375 0.9375 Z M 17.15625 -3.484375 L 19.40625 -4.765625 L 19.578125 -4.421875 L 17.359375 -3.15625 Z M 8.203125 0.171875 L 10.75 -1.28125 L 11.015625 -0.984375 L 8.421875 0.546875 Z M 11.953125 -2 L 16.640625 -4.71875 L 16.8125 -4.375 L 12.171875 -1.65625 Z M 17.390625 -5.1875 L 19.40625 -6.34375 L 19.65625 -5.96875 L 17.65625 -4.8125 Z M 6.734375 -0.546875 L 8.96875 -1.78125 L 9.140625 -1.4375 L 6.90625 -0.171875 Z M 9.8125 -2.265625 L 12.9375 -4.046875 L 13.109375 -3.703125 L 10.03125 -1.921875 Z M 14.34375 -4.90625 L 19.1875 -7.671875 L 19.359375 -7.359375 L 14.546875 -4.546875 Z M 5.703125 -1.375 L 7.703125 -2.59375 L 7.984375 -2.21875 L 5.921875 -1.0625 Z M 8.421875 -3.03125 L 10.890625 -4.46875 L 11.15625 -4.09375 L 8.6875 -2.671875 Z M 14.5 -6.515625 L 16.671875 -7.75 L 16.859375 -7.453125 L 14.671875 -6.15625 Z M 4.90625 -2.5 L 6.90625 -3.65625 L 7.1875 -3.3125 L 5.1875 -2.140625 Z M 7.671875 -4.046875 L 10.21875 -5.53125 L 10.4375 -5.21875 L 7.875 -3.703125 Z M 4.46875 -3.703125 L 6.46875 -4.90625 L 6.734375 -4.546875 L 4.6875 -3.359375 Z M 7.234375 -5.359375 L 10.078125 -6.953125 L 10.25 -6.59375 L 7.453125 -4.984375 Z M 4.140625 -5.078125 L 6.296875 -6.296875 L 6.46875 -5.921875 L 4.328125 -4.71875 Z M 7.09375 -6.765625 L 10.03125 -8.46875 L 10.25 -8.125 L 7.3125 -6.421875 Z M 4 -6.515625 L 6.25 -7.75 L 6.421875 -7.453125 L 4.25 -6.15625 Z M 7.0625 -8.25 L 10.125 -10 L 10.25 -9.625 L 7.265625 -7.875 Z M 16.328125 -13.609375 L 18.09375 -14.625 L 18.375 -14.265625 L 16.59375 -13.234375 Z M 4 -8.03125 L 6.25 -9.3125 L 6.421875 -8.96875 L 4.25 -7.671875 Z M 7.0625 -9.78125 L 10.125 -11.546875 L 10.25 -11.1875 L 7.265625 -9.453125 Z M 13.828125 -13.703125 L 18.296875 -16.21875 L 18.46875 -15.921875 L 14.046875 -13.328125 Z M 4.046875 -9.578125 L 6.25 -10.84375 L 6.421875 -10.46875 L 4.296875 -9.234375 Z M 7.0625 -11.28125 L 10.171875 -13.0625 L 10.296875 -12.71875 L 7.265625 -10.9375 Z M 11.328125 -13.78125 L 14.8125 -15.78125 L 14.984375 -15.4375 L 11.546875 -13.40625 Z M 16.140625 -16.5 L 18.375 -17.828125 L 18.640625 -17.484375 L 16.375 -16.140625 Z M 4.140625 -11.15625 L 6.296875 -12.296875 L 6.46875 -11.953125 L 4.328125 -10.796875 Z M 7.0625 -12.796875 L 12.125 -15.75 L 12.390625 -15.390625 L 7.3125 -12.4375 Z M 13.453125 -16.5 L 17.75 -18.984375 L 18 -18.640625 L 13.734375 -16.140625 Z M 4.203125 -12.671875 L 6.296875 -13.875 L 6.46875 -13.515625 L 4.375 -12.296875 Z M 7.0625 -14.3125 L 9.5 -15.75 L 9.671875 -15.390625 L 7.265625 -13.953125 Z M 10.796875 -16.46875 L 15.203125 -18.984375 L 15.390625 -18.640625 L 11.015625 -16.09375 Z M 3.265625 -13.65625 L 6.296875 -15.390625 L 6.46875 -15.03125 L 3.4375 -13.28125 Z M 8.171875 -16.46875 L 12.265625 -18.8125 L 12.484375 -18.46875 L 8.421875 -16.09375 Z M 0.625 -13.65625 L 4.140625 -15.703125 L 4.328125 -15.34375 L 0.84375 -13.28125 Z M 5.53125 -16.46875 L 6.25 -16.890625 L 6.515625 -16.546875 L 5.796875 -16.09375 Z M 7.09375 -17.359375 L 10.4375 -19.265625 L 10.609375 -18.90625 L 7.265625 -16.984375 Z M 0 -14.765625 L 1.5625 -15.65625 L 1.703125 -15.28125 L 0.171875 -14.421875 Z M 2.890625 -16.421875 L 6.296875 -18.375 L 6.46875 -18.046875 L 3.0625 -16.046875 Z M 7.09375 -18.859375 L 10.609375 -20.859375 L 10.796875 -20.515625 L 7.265625 -18.515625 Z M -0.125 -16.171875 L 3.921875 -18.546875 L 4.203125 -18.203125 L 0.125 -15.875 Z M 4.046875 -18.640625 L 6.296875 -19.921875 L 6.46875 -19.578125 L 4.296875 -18.296875 Z M 7.09375 -20.34375 L 10.796875 -22.46875 L 10.96875 -22.171875 L 7.265625 -20.03125 Z M -0.21875 -17.703125 L 1.484375 -18.640625 L 1.703125 -18.296875 L 0.046875 -17.359375 Z M 3.96875 -20.125 L 6.203125 -21.40625 L 6.46875 -21.0625 L 4.25 -19.75 Z M 7.09375 -21.90625 L 10.9375 -24.125 L 11.1875 -23.78125 L 7.3125 -21.53125 Z M 3.875 -21.578125 L 6.25 -22.921875 L 6.421875 -22.5625 L 4.046875 -21.234375 Z M 7.0625 -23.40625 L 10.890625 -25.65625 L 11.15625 -25.28125 L 7.3125 -23.0625 Z M 3.828125 -23.015625 L 8.96875 -26 L 9.140625 -25.65625 L 3.96875 -22.640625 Z M 3.75 -24.46875 L 6.078125 -25.828125 L 6.25 -25.453125 L 3.875 -24.125 Z M 3.75 -24.46875 "/></g></g></g></svg>